<svg xmlns="http://www.w3.org/2000/svg" xmlns:inkscape="http://www.inkscape.org/namespaces/inkscape" width="11.0in" height="8.5in" viewBox="-32.2555424714363 -3.651182424407184 34.79671214873964 26.888368478571536"><g inkscape:label="0-layer" inkscape:groupmode="layer"><path style="stroke-width: 0.10439013644621892; stroke: black;" fill="none" d="M -1.4821850436291601 1.3518320971930322 L -0.07896736320947872 1.527843862020298 L -0.07896736320947872 1.527843862020298 L 0.09704440161778716 0.124626181600617 L 0.09704440161778716 0.124626181600617 L -1.3061732788018938 -0.05138558322664932 L -1.3061732788018938 -0.05138558322664932 L -1.4821850436291601 1.3518320971930318 M -2.876661314623555 0.5871548509546407 L -1.8843695773055449 1.2174905704728276 L -1.8843695773055449 1.2174905704728276 L -0.9782496735950729 0.4685494971233753 L -0.9782496735950729 0.4685494971233753 L -1.410528512537229 -0.6246572612956012 L -1.410528512537229 -0.6246572612956012 L -2.5838114313312954 -0.551355121380172 L -2.5838114313312954 -0.551355121380172 L -2.876661314623555 0.5871548509546403 M -2.9417865157852447 -0.023522852255352666 L -4.352015931509722 -0.12960298717889807 L -4.352015931509722 -0.12960298717889807 L -4.458096066433268 1.2806264285455797 L -4.458096066433268 1.2806264285455797 L -3.04786665070879 1.3867065634691254 L -3.04786665070879 1.3867065634691254 L -2.9417865157852443 -0.023522852255352444 M -6.11466186364617 1.0453872785915599 L -4.954965275102096 0.8528519993065873 L -4.954965275102096 0.8528519993065873 L -4.779711252904007 -0.30958167146929705 L -4.779711252904007 -0.30958167146929705 L -5.831094899064533 -0.8354699103911264 L -5.831094899064533 -0.8354699103911264 L -6.65613974980562 0.0019469544472418276 L -6.65613974980562 0.0019469544472418276 L -6.1146618636461705 1.0453872785915594 M -7.0845567840899895 -0.7669735743068751 L -8.202631627246092 0.5558675518686966 L -8.202631627246092 0.5558675518686966 L -6.4979801852291805 0.8627282062863979 L -6.4979801852291805 0.8627282062863979 L -7.08455678408999 -0.7669735743068751 M -8.065851223803453 1.4583190810901603 L -8.605914438446908 -0.18738190152757406 L -8.605914438446908 -0.18738190152757406 L -9.76110168910515 1.103177053312014 L -9.76110168910515 1.103177053312014 L -8.06585122380345 1.4583190810901598 M -10.731658478589946 -0.3240801104384309 L -11.589348559885885 0.19008690955270502 L -11.589348559885885 0.19008690955270502 L -11.57291189943339 1.1899518185244968 L -11.57291189943339 1.1899518185244968 L -10.698785157684956 1.6756497075051522 L -10.698785157684956 1.6756497075051522 L -9.841095076389017 1.161482687514016 L -9.841095076389017 1.161482687514016 L -9.857531736841512 0.16161777854222448 L -9.857531736841512 0.16161777854222448 L -10.731658478589948 -0.3240801104384302 M -11.606616303200141 0.3710944108129488 L -12.390675589224024 -0.5048148580327592 L -12.390675589224024 -0.5048148580327592 L -13.466002451021925 -0.0298010145018775 L -13.466002451021925 -0.0298010145018775 L -13.346531714604907 1.13968295477264 L -13.346531714604907 1.13968295477264 L -12.197367877040307 1.3874499535515479 L -12.197367877040307 1.3874499535515479 L -11.606616303200141 0.37109441081294925 M -14.832545209346842 1.4318265947908304 L -13.307624198068547 0.6104765419132637 L -13.307624198068547 0.6104765419132637 L -14.781394714899358 -0.2994687661796126 L -14.781394714899358 -0.2994687661796126 L -14.83254520934684 1.4318265947908309 M -14.641743188542279 -0.4188276671444318 L -16.370285963865765 -0.5290087629684292 L -16.370285963865765 -0.5290087629684292 L -15.601434204204411 1.0230437399017664 L -15.601434204204411 1.0230437399017664 L -14.641743188542279 -0.41882766714443226 M -17.440911541821865 -0.41335465230093493 L -18.862580679721816 0.5760173011841108 L -18.862580679721816 0.5760173011841108 L -17.294924865261954 1.312532913639266 L -17.294924865261954 1.312532913639266 L -17.440911541821865 -0.41335465230093515 M -18.81758803902734 1.6860229262075703 L -18.403450362905023 0.7758086738383788 L -18.403450362905023 0.7758086738383788 L -18.984650190282245 -0.037952200532395786 L -18.984650190282245 -0.037952200532395786 L -19.979987693781784 0.058501177466020904 L -19.979987693781784 0.058501177466020904 L -20.3941253699041 0.9687154298352125 L -20.3941253699041 0.9687154298352125 L -19.812925542526877 1.782476304205987 L -19.812925542526877 1.782476304205987 L -18.81758803902734 1.6860229262075694 M -20.04423444379824 1.190589091777125 L -19.926080998761318 0.020971301780746354 L -19.926080998761318 0.020971301780746354 L -21.001942197051754 -0.45283107607648765 L -21.001942197051754 -0.45283107607648765 L -21.785014429809358 0.42396074045359977 L -21.785014429809358 0.42396074045359977 L -21.193118487009386 1.4396502619841895 L -21.193118487009386 1.4396502619841895 L -20.04423444379824 1.1905890917771251 M -22.061588617534444 0.1032304153468393 L -23.19282394671785 -0.2165705247040115 L -23.19282394671785 -0.2165705247040115 L -23.846543656025542 0.7604742812863666 L -23.846543656025542 0.7604742812863666 L -23.119329326309984 1.6841221199708183 L -23.119329326309984 1.6841221199708183 L -22.01616644413211 1.2779230719228114 L -22.01616644413211 1.2779230719228114 L -22.061588617534444 0.10323041534683974 M -25.53219568904266 0.1633586850433965 L -24.657631295935452 1.2747259161191637 L -24.657631295935452 1.2747259161191637 L -23.546264064859685 0.40016152301195446 L -23.546264064859685 0.40016152301195446 L -24.42082845796689 -0.711205708063813 L -24.42082845796689 -0.711205708063813 L -25.53219568904266 0.16335868504339618 M -25.77944983263627 -0.7238698825312174 L -26.962144431152833 0.0515225901171486 L -26.962144431152833 0.0515225901171486 L -26.18675195850447 1.234217188633711 L -26.18675195850447 1.234217188633711 L -25.004057359987907 0.45882471598534513 L -25.004057359987907 0.45882471598534513 L -25.77944983263627 -0.7238698825312174 M -26.50102191937449 0.13677665583018717 L -28.18680525496616 0.5344380009989538 L -28.18680525496616 0.5344380009989538 L -26.999528760151083 1.7955385223134215 L -26.999528760151083 1.7955385223134215 L -26.501021919374494 0.13677665583018672 M -29.673993153414663 1.1060409003184428 L -28.679117653135197 1.207148461577136 L -28.679117653135197 1.207148461577136 L -28.094118186430745 0.3961147853617118 L -28.094118186430745 0.3961147853617118 L -28.503994220005758 -0.5160264521124056 L -28.503994220005758 -0.5160264521124056 L -29.498869720285224 -0.6171340133710985 L -29.498869720285224 -0.6171340133710985 L -30.083869186989677 0.19389966284432586 L -30.083869186989677 0.19389966284432586 L -29.673993153414663 1.1060409003184426 M 0.3132945758859328 3.213449814413425 L 0.27197132402970026 1.799840112672514 L 0.27197132402970026 1.799840112672514 L -1.1416383777112102 1.8411633645287466 L -1.1416383777112102 1.8411633645287466 L -1.1003151258549781 3.2547730662696575 L -1.1003151258549781 3.2547730662696575 L 0.31329457588593257 3.213449814413425 M -3.176053302400951 1.2020664501158032 L -3.3985092395053194 2.177009195125487 L -3.3985092395053194 2.177009195125487 L -2.6654120236437833 2.857133060385385 L -2.6654120236437833 2.857133060385385 L -1.7098588706778786 2.562314180635599 L -1.7098588706778786 2.562314180635599 L -1.4874029335735104 1.5873714356259154 L -1.4874029335735104 1.5873714356259154 L -2.220500149435047 0.9072475703660177 L -2.220500149435047 0.9072475703660177 L -3.176053302400951 1.202066450115804 M -4.74487006099019 1.3900301250595264 L -4.445510899605759 2.526845898940816 L -4.445510899605759 2.526845898940816 L -3.271827781739219 2.5934338113963267 L -3.271827781739219 2.5934338113963267 L -2.845810884260179 1.497771630652445 L -2.845810884260179 1.497771630652445 L -3.756201079702893 0.7540272503093851 L -3.756201079702893 0.7540272503093851 L -4.7448700609901895 1.3900301250595262 M -5.168448107638737 3.289469046030465 L -4.35289373316638 2.1341028433574762 L -4.35289373316638 2.1341028433574762 L -5.508259935839369 1.3185484688851195 L -5.508259935839369 1.3185484688851195 L -6.323814310311726 2.4739146715581084 L -6.323814310311726 2.4739146715581084 L -5.168448107638737 3.289469046030465 M -8.244197049705836 2.4914501784893397 L -7.197064234715155 3.0257524141386005 L -7.197064234715155 3.0257524141386005 L -6.365330776630058 2.194978397963376 L -6.365330776630058 2.194978397963376 L -6.898424044943663 1.1472295833475707 L -6.898424044943663 1.1472295833475707 L -8.059627262020335 1.3304592204178156 L -8.059627262020335 1.3304592204178156 L -8.244197049705836 2.4914501784893393 M -10.04792101990922 1.60996557856215 L -9.728201474723804 2.9875647265099228 L -9.728201474723804 2.9875647265099228 L -8.350602326776029 2.667845181324507 L -8.350602326776029 2.667845181324507 L -8.670321871961445 1.290246033376734 L -8.670321871961445 1.290246033376734 L -10.047921019909218 1.6099655785621496 M -9.600948122004855 1.9579912881427661 L -10.023085856005347 1.0514595823911526 L -10.023085856005347 1.0514595823911526 L -11.01923420952253 0.9637757310557697 L -11.01923420952253 0.9637757310557697 L -11.593244829039222 1.7826235854720003 L -11.593244829039222 1.7826235854720003 L -11.17110709503873 2.689155291223614 L -11.17110709503873 2.689155291223614 L -10.174958741521547 2.7768391425589964 L -10.174958741521547 2.7768391425589964 L -9.600948122004857 1.9579912881427652 M -12.41218044628722 0.961507388470623 L -13.133451100364171 2.5362355058189503 L -13.133451100364171 2.5362355058189503 L -11.4090612196484 2.3735101565796444 L -11.4090612196484 2.3735101565796444 L -12.41218044628722 0.961507388470623 M -14.311506787902456 1.7110241679552223 L -14.56777191075461 2.6776306994920054 L -14.56777191075461 2.6776306994920054 L -13.858798660405867 3.382866071754302 L -13.858798660405867 3.382866071754302 L -12.893560287204972 3.121494912479815 L -12.893560287204972 3.121494912479815 L -12.63729516435282 2.1548883809430315 L -12.63729516435282 2.1548883809430315 L -13.346268414701562 1.4496530086807353 L -13.346268414701562 1.4496530086807353 L -14.311506787902456 1.7110241679552232 M -16.078585981720032 3.294177871512867 L -14.916572194627417 3.4721946399836643 L -14.916572194627417 3.4721946399836643 L -14.388186179053848 2.422064062485611 L -14.388186179053848 2.422064062485611 L -15.223639449341867 1.5950309044954611 L -15.223639449341867 1.5950309044954611 L -16.26836398196568 2.13402688053244 L -16.26836398196568 2.13402688053244 L -16.078585981720032 3.2941778715128667 M -17.97966730967742 1.0821677253142739 L -18.5011037175898 2.7338650560935656 L -18.5011037175898 2.7338650560935656 L -16.809973665815793 2.3595935664141434 L -16.809973665815793 2.3595935664141434 L -17.97966730967742 1.0821677253142743 M -19.799745595580173 2.2942162561755666 L -19.1081418874383 3.016493426577907 L -19.1081418874383 3.016493426577907 L -18.136829655225394 2.778685631176697 L -18.136829655225394 2.778685631176697 L -17.85712113115436 1.8186006653731466 L -17.85712113115436 1.8186006653731466 L -18.548724839296234 1.0963234949708063 L -18.548724839296234 1.0963234949708063 L -19.52003707150914 1.3341312903720164 L -19.52003707150914 1.3341312903720164 L -19.79974559558017 2.294216256175567 M -20.763569995620177 3.1549926942220896 L -19.996588847083494 1.9668260738403562 L -19.996588847083494 1.9668260738403562 L -21.184755467465227 1.1998449253036738 L -21.184755467465227 1.1998449253036738 L -21.95173661600191 2.3880115456854076 L -21.95173661600191 2.3880115456854076 L -20.763569995620177 3.15499269422209 M -23.403631012512513 2.2970445895393277 L -22.498439323316273 2.7220481257717473 L -22.498439323316273 2.7220481257717473 L -21.67777961964266 2.1506308957494675 L -21.67777961964266 2.1506308957494675 L -21.762311605165284 1.1542101294947675 L -21.762311605165284 1.1542101294947675 L -22.66750329436152 0.7292065932623479 L -22.66750329436152 0.7292065932623479 L -23.488162998035133 1.3006238232846281 L -23.488162998035133 1.3006238232846281 L -23.40363101251251 2.2970445895393277 M -22.925215241762583 2.9272573732593297 L -22.9999243781195 1.9300520057723696 L -22.9999243781195 1.9300520057723696 L -23.90088412733186 1.4961493320087729 L -23.90088412733186 1.4961493320087729 L -24.727134740187307 2.0594520257321367 L -24.727134740187307 2.0594520257321367 L -24.65242560383039 3.056657393219097 L -24.65242560383039 3.056657393219097 L -23.75146585461803 3.4905600669826935 L -23.75146585461803 3.4905600669826935 L -22.925215241762583 2.9272573732593288 M -24.90952238148691 2.8202829084106935 L -24.868391283592764 1.8211291500801638 L -24.868391283592764 1.8211291500801638 L -25.71311827164663 1.285931695253025 L -25.71311827164663 1.285931695253025 L -26.598976357594637 1.7498879987564155 L -26.598976357594637 1.7498879987564155 L -26.64010745548878 2.749041757086945 L -26.64010745548878 2.749041757086945 L -25.795380467434917 3.284239211914084 L -25.795380467434917 3.284239211914084 L -24.90952238148691 2.8202829084106926 M -27.141951256921917 1.8876798990719508 L -28.49173107886211 1.4656675387279714 L -28.49173107886211 1.4656675387279714 L -28.91374343920609 2.8154473606681654 L -28.91374343920609 2.8154473606681654 L -27.563963617265898 3.2374597210121454 L -27.563963617265898 3.2374597210121454 L -27.141951256921917 1.8876798990719512 M -29.170059319956582 3.04112677265925 L -28.24242854518367 1.5784234036557439 L -28.24242854518367 1.5784234036557439 L -29.972982208328247 1.5064232718719146 L -29.972982208328247 1.5064232718719146 L -29.170059319956582 3.04112677265925 M -0.5939403981076075 4.642560303285126 L 0.23481418418361244 3.496625818974917 L 0.23481418418361244 3.496625818974917 L -0.9111203001265968 2.6678712366836974 L -0.9111203001265968 2.6678712366836974 L -1.739874882417817 3.8138057209939067 L -1.739874882417817 3.8138057209939067 L -0.5939403981076077 4.642560303285126 M -3.174521854344732 3.021320044549796 L -2.811467292294619 4.714893599189392 L -2.811467292294619 4.714893599189392 L -1.5263168518242716 3.553692348174363 L -1.5263168518242716 3.553692348174363 L -3.174521854344732 3.0213200445497965 M -4.732244959856335 4.973158771245979 L -3.352924968521066 4.660946725509634 L -3.352924968521066 4.660946725509634 L -3.6651370142574105 3.2816267341743655 L -3.6651370142574105 3.2816267341743655 L -5.04445700559268 3.5938387799107097 L -5.04445700559268 3.5938387799107097 L -4.732244959856335 4.973158771245978 M -6.740236888790979 3.898422812321949 L -6.0688508252798865 4.639530600516811 L -6.0688508252798865 4.639530600516811 L -5.091339622005093 4.428647107866803 L -5.091339622005093 4.428647107866803 L -4.7852144822413925 3.4766558270219337 L -4.7852144822413925 3.4766558270219337 L -5.456600545752485 2.7355480388270723 L -5.456600545752485 2.7355480388270723 L -6.434111749027278 2.94643153147708 L -6.434111749027278 2.94643153147708 L -6.740236888790978 3.8984228123219493 M -8.429090635871834 3.5221662771696556 L -8.333381959289463 4.693834259354436 L -8.333381959289463 4.693834259354436 L -7.189483882325145 4.964875217084888 L -7.189483882325145 4.964875217084888 L -6.578224667677923 3.960719759120849 L -6.578224667677923 3.960719759120849 L -7.344343774053692 3.0690765983799055 L -7.344343774053692 3.0690765983799055 L -8.429090635871834 3.5221662771696547 M -9.570351967124042 3.325157367598056 L -9.844975738503463 4.7124503374473745 L -9.844975738503463 4.7124503374473745 L -8.457682768654143 4.9870741088267945 L -8.457682768654143 4.9870741088267945 L -8.183058997274722 3.599781138977475 L -8.183058997274722 3.599781138977475 L -9.570351967124042 3.325157367598055 M -10.523539629393467 2.999311857293605 L -11.735910647391934 4.2363068106856385 L -11.735910647391934 4.2363068106856385 L -10.058456084402053 4.667753434388295 L -10.058456084402053 4.667753434388295 L -10.523539629393467 2.999311857293605 M -12.375463153130719 5.146736287120813 L -11.771457424849782 4.138201165544019 L -11.771457424849782 4.138201165544019 L -12.54398328939929 3.252103089791601 L -12.54398328939929 3.252103089791601 L -13.625436259160221 3.712999483187521 L -13.625436259160221 3.712999483187521 L -13.52128508715748 4.883947195350861 L -13.52128508715748 4.883947195350861 L -12.375463153130719 5.146736287120813 M -12.958962709029446 3.388105953426726 L -14.118895395222404 3.1969981965164025 L -14.118895395222404 3.1969981965164025 L -14.659088585111125 4.2411041915417895 L -14.659088585111125 4.2411041915417895 L -13.833013650760623 5.077504941235332 L -13.833013650760623 5.077504941235332 L -12.782278074188953 4.5503230377364465 L -12.782278074188953 4.5503230377364465 L -12.958962709029446 3.3881059534267264 M -16.178705013073607 2.85281788668856 L -17.027336315669462 3.6663232176511613 L -17.027336315669462 3.6663232176511613 L -16.515888264077297 4.724806520199051 L -16.515888264077297 4.724806520199051 L -15.351164682117581 4.5654798467352835 L -15.351164682117581 4.5654798467352835 L -15.142773972560112 3.40852724467233 L -15.142773972560112 3.40852724467233 L -16.178705013073607 2.85281788668856 M -18.36509989717487 4.4327464866874156 L -17.66338414819188 5.145203508288889 L -17.66338414819188 5.145203508288889 L -16.695520393888913 4.8937283542347325 L -16.695520393888913 4.8937283542347325 L -16.429372388568932 3.9297961785791022 L -16.429372388568932 3.9297961785791022 L -17.13108813755192 3.217339156977629 L -17.13108813755192 3.217339156977629 L -18.09895189185489 3.4688143110317857 L -18.09895189185489 3.4688143110317857 L -18.36509989717487 4.4327464866874156 M -17.702124853655878 4.173156464474215 L -19.143963410802858 3.2134160958722093 L -19.143963410802858 3.2134160958722093 L -19.254203672476145 4.941955098818398 L -19.254203672476145 4.941955098818398 L -17.702124853655878 4.173156464474214 M -20.165784441244867 4.48443612990632 L -20.95083610436576 3.3081309457678167 L -20.95083610436576 3.3081309457678167 L -22.127141288504262 4.093182608888711 L -22.127141288504262 4.093182608888711 L -21.34208962538337 5.2694877930272135 L -21.34208962538337 5.2694877930272135 L -20.165784441244867 4.48443612990632 M -23.113186190560914 3.1133476655163568 L -23.545092031592752 4.015266367219887 L -23.545092031592752 4.015266367219887 L -22.979960444285137 4.840267148448107 L -22.979960444285137 4.840267148448107 L -21.982923015945683 4.763349227972797 L -21.982923015945683 4.763349227972797 L -21.551017174913845 3.8614305262692676 L -21.551017174913845 3.8614305262692676 L -22.11614876222146 3.0364297450410476 L -22.11614876222146 3.0364297450410476 L -23.113186190560914 3.113347665516358 M -23.906937161233763 2.5379708089915733 L -25.023216067117467 2.9065999119245634 L -25.023216067117467 2.9065999119245634 L -25.01757810905735 4.082156896795572 L -25.01757810905735 4.082156896795572 L -23.897814753465344 4.440061966225212 L -23.897814753465344 4.440061966225212 L -23.21140089841297 3.4857024790076117 L -23.21140089841297 3.4857024790076117 L -23.90693716123376 2.537970808991574 M -26.680713517470103 3.4068890729944314 L -26.79332730238296 4.400527908511442 L -26.79332730238296 4.400527908511442 L -25.989117721094868 4.994873724820798 L -25.989117721094868 4.994873724820798 L -25.07229435489392 4.595580705613143 L -25.07229435489392 4.595580705613143 L -24.959680569981064 3.601941870096132 L -24.959680569981064 3.601941870096132 L -25.763890151269155 3.007596053786777 L -25.763890151269155 3.007596053786777 L -26.680713517470103 3.4068890729944323 M -28.513006808169337 3.9456035550601283 L -27.41849139686374 4.374558128021702 L -27.41849139686374 4.374558128021702 L -26.672307492355316 3.4661663667740177 L -26.672307492355316 3.4661663667740177 L -27.305655888816602 2.4757948102609966 L -27.305655888816602 2.4757948102609966 L -28.443270629058343 2.7721032880924956 L -28.443270629058343 2.7721032880924956 L -28.513006808169337 3.945603555060128 M -30.173326608698517 4.134509048680696 L -28.760103700664317 4.187433638498233 L -28.760103700664317 4.187433638498233 L -28.70717911084678 2.7742107304640315 L -28.70717911084678 2.7742107304640315 L -30.12040201888098 2.7212861406464945 L -30.12040201888098 2.7212861406464945 L -30.173326608698517 4.134509048680696 M -1.461368049605924 5.763503543575048 L -0.1578411900698562 6.311972071813485 L -0.1578411900698562 6.311972071813485 L 0.3906273381685801 5.008445212277417 L 0.3906273381685801 5.008445212277417 L -0.9128995213674878 4.45997668403898 L -0.9128995213674878 4.45997668403898 L -1.461368049605924 5.763503543575048 M -1.8381668947367509 5.039395892077093 L -2.9987505778280763 4.852282221298393 L -2.9987505778280763 4.852282221298393 L -3.535346335179552 5.8982415916577295 L -3.535346335179552 5.8982415916577295 L -2.706397068350431 6.73179370416994 L -2.706397068350431 6.73179370416994 L -1.657482489149252 6.2009978707374245 L -1.657482489149252 6.2009978707374245 L -1.8381668947367509 5.039395892077093 M -3.1451005672530217 4.6504011932047495 L -4.873427709870159 4.763914576084845 L -4.873427709870159 4.763914576084845 L -3.910958665317918 6.203933096201409 L -3.910958665317918 6.203933096201409 L -3.145100567253022 4.6504011932047495 M -5.986725550277292 6.517980575105778 L -4.987065014038077 6.544034601395817 L -4.987065014038077 6.544034601395817 L -4.464671297280427 5.691330194996901 L -4.464671297280427 5.691330194996901 L -4.9419381167619925 4.812571762307945 L -4.9419381167619925 4.812571762307945 L -5.9415986530012095 4.786517736017906 L -5.9415986530012095 4.786517736017906 L -6.463992369758859 5.639222142416822 L -6.463992369758859 5.639222142416822 L -5.986725550277292 6.517980575105778 M -7.089350231165674 4.845564716850693 L -7.895291060278032 5.701383267257139 L -7.895291060278032 5.701383267257139 L -7.330408663804063 6.73234102070969 L -7.330408663804063 6.73234102070969 L -6.175351314024298 6.513689402902155 L -6.175351314024298 6.513689402902155 L -6.026369009378997 5.347597517949396 L -6.026369009378997 5.347597517949396 L -7.089350231165673 4.845564716850693 M -8.421000659711588 4.530207816865535 L -9.415672595505269 4.63329874830206 L -9.415672595505269 4.63329874830206 L -9.82372919787828 5.546255378849096 L -9.82372919787828 5.546255378849096 L -9.237113864457607 6.356121077959604 L -9.237113864457607 6.356121077959604 L -8.242441928663926 6.253030146523079 L -8.242441928663926 6.253030146523079 L -7.834385326290917 5.3400735159760435 L -7.834385326290917 5.3400735159760435 L -8.42100065971159 4.530207816865535 M -11.626409521049673 5.60959613326364 L -10.566385621713431 6.545731450851856 L -10.566385621713431 6.545731450851856 L -9.630250304125216 5.485707551515615 L -9.630250304125216 5.485707551515615 L -10.690274203461458 4.549572233927399 L -10.690274203461458 4.549572233927399 L -11.626409521049673 5.60959613326364 M -11.844429633051494 4.704981284932011 L -12.954703963267404 4.318643449723349 L -12.954703963267404 4.318643449723349 L -13.665226715388945 5.255192129700924 L -13.665226715388945 5.255192129700924 L -12.994079595764262 6.2203488812545755 L -12.994079595764262 6.2203488812545755 L -11.868765112263077 5.880299878208596 L -11.868765112263077 5.880299878208596 L -11.844429633051494 4.704981284932011 M -13.862398364502152 6.799995696680827 L -13.572413947992457 5.0923923943352465 L -13.572413947992457 5.0923923943352465 L -15.196233995664777 5.695060174109034 L -15.196233995664777 5.695060174109034 L -13.862398364502152 6.799995696680826 M -15.33352011423835 6.177315877859361 L -15.159650111257225 5.192547264395598 L -15.159650111257225 5.192547264395598 L -15.925549745875859 4.549587118125985 L -15.925549745875859 4.549587118125985 L -16.865319383475622 4.891395585320136 L -16.865319383475622 4.891395585320136 L -17.039189386456748 5.876164198783899 L -17.039189386456748 5.876164198783899 L -16.27328975183811 6.519124345053512 L -16.27328975183811 6.519124345053512 L -15.33352011423835 6.17731587785936 M -16.795712834373752 4.394763717865695 L -18.327731654244833 5.202797340656747 L -18.327731654244833 5.202797340656747 L -16.86194459986027 6.12554774634543 L -16.86194459986027 6.12554774634543 L -16.795712834373756 4.394763717865695 M -19.0973823548505 4.581600823403154 L -19.630773209164385 5.891369580296638 L -19.630773209164385 5.891369580296638 L -18.321004452270902 6.4247604346105245 L -18.321004452270902 6.4247604346105245 L -17.787613597957016 5.114991677717041 L -17.787613597957016 5.114991677717041 L -19.0973823548505 4.581600823403154 M -19.940321582835217 5.539662187650397 L -21.249222402973203 4.405299528249926 L -21.249222402973203 4.405299528249926 L -21.57715887304949 6.106022219223943 L -21.57715887304949 6.106022219223943 L -19.940321582835217 5.539662187650397 M -23.607979857415057 6.548737023993232 L -22.668726518266773 6.891961680594121 L -22.668726518266773 6.891961680594121 L -21.90185857687107 6.25015675660279 L -21.90185857687107 6.25015675660279 L -22.074243974623652 5.26512717601057 L -22.074243974623652 5.26512717601057 L -23.013497313771936 4.921902519409682 L -23.013497313771936 4.921902519409682 L -23.780365255167638 5.563707443401013 L -23.780365255167638 5.563707443401013 L -23.607979857415057 6.548737023993232 M -23.062812803589534 5.6261389349042 L -23.543988051473796 4.749514510864168 L -23.543988051473796 4.749514510864168 L -24.5437546962125 4.727912287184198 L -24.5437546962125 4.727912287184198 L -25.06234609306694 5.58293448754426 L -25.06234609306694 5.58293448754426 L -24.581170845182676 6.459558911584292 L -24.581170845182676 6.459558911584292 L -23.581404200443973 6.481161135264262 L -23.581404200443973 6.481161135264262 L -23.062812803589537 5.6261389349041995 M -25.66309441216712 4.307429842549862 L -26.827508973227868 4.468999459866386 L -26.827508973227868 4.468999459866386 L -27.03367102370909 5.626351273357636 L -27.03367102370909 5.626351273357636 L -25.996671617036107 6.180064413720032 L -25.996671617036107 6.180064413720032 L -25.149608686917507 5.364926140990186 L -25.149608686917507 5.364926140990186 L -25.66309441216712 4.307429842549863 M -28.548843521327505 4.819805599942028 L -28.864725422160273 5.768604116343838 L -28.864725422160273 5.768604116343838 L -28.2009827542997 6.516565125261638 L -28.2009827542997 6.516565125261638 L -27.221358185606363 6.315727617777628 L -27.221358185606363 6.315727617777628 L -26.905476284773595 5.366929101375817 L -26.905476284773595 5.366929101375817 L -27.569218952634166 4.618968092458018 L -27.569218952634166 4.618968092458018 L -28.548843521327505 4.819805599942029 M -30.62132349824758 5.513257027854082 L -29.936105031800707 6.468475151891886 L -29.936105031800707 6.468475151891886 L -28.8158944594597 6.111972297954456 L -28.8158944594597 6.111972297954456 L -28.808784717642855 4.936423293096979 L -28.808784717642855 4.936423293096979 L -29.924601227889816 4.5663969065913745 L -29.924601227889816 4.5663969065913745 L -30.62132349824758 5.513257027854081 M 0.12459300801162314 6.560776111504754 L -0.9622516823397358 7.008810295808992 L -0.9622516823397358 7.008810295808992 L -0.8719993313989539 8.180911197779366 L -0.8719993313989539 8.180911197779366 L 0.27062437939839207 8.45727520913723 L 0.27062437939839207 8.45727520913723 L 0.8865523180818999 7.455976659453276 L 0.8865523180818999 7.455976659453276 L 0.12459300801162358 6.5607761115047545 M -2.599362849367141 6.828975166823525 L -2.8122980438258836 8.227066223572269 L -2.8122980438258836 8.227066223572269 L -1.4142069870771405 8.44000141803101 L -1.4142069870771405 8.44000141803101 L -1.2012717926183978 7.041910361282267 L -1.2012717926183978 7.041910361282267 L -2.5993628493671403 6.828975166823525 M -4.634318614812372 7.298589653755091 L -3.710508272887945 8.025597537758818 L -3.710508272887945 8.025597537758818 L -2.7336095921742687 7.371659483452461 L -2.7336095921742687 7.371659483452461 L -3.0536633458527125 6.240495655350429 L -3.0536633458527125 6.240495655350429 L -4.228366124566653 6.195336017045287 L -4.228366124566653 6.195336017045287 L -4.634318614812372 7.29858965375509 M -6.242028460153965 6.704465558988047 L -6.887975144829526 7.46784808469626 L -6.887975144829526 7.46784808469626 L -6.549839827098867 8.408945585969738 L -6.549839827098867 8.408945585969738 L -5.565757824692647 8.586660561535004 L -5.565757824692647 8.586660561535004 L -4.919811140017086 7.8232780358267915 L -4.919811140017086 7.8232780358267915 L -5.257946457747745 6.882180534553313 L -5.257946457747745 6.882180534553313 L -6.242028460153965 6.704465558988048 M -6.4585441513507 7.215250505857783 L -7.55787168491338 6.325599465308178 L -7.55787168491338 6.325599465308178 L -8.447522725462983 7.424926998870859 L -8.447522725462983 7.424926998870859 L -7.348195191900304 8.314578039420462 L -7.348195191900304 8.314578039420462 L -6.4585441513507 7.215250505857783 M -9.323333486242841 6.559522753490089 L -10.248485580475931 7.284822425202574 L -10.248485580475931 7.284822425202574 L -9.844572320926634 8.388824277560786 L -9.844572320926634 8.388824277560786 L -8.669788103785322 8.345835274248524 L -8.669788103785322 8.345835274248524 L -8.347644787694351 7.215264756700847 L -8.347644787694351 7.215264756700847 L -9.323333486242841 6.559522753490089 M -11.183374031972924 6.72199254223667 L -11.561725219006455 7.83501383157503 L -11.561725219006455 7.83501383157503 L -10.620096015641268 8.538789686957942 L -10.620096015641268 8.538789686957942 L -9.659785976128568 7.860725796707754 L -9.659785976128568 7.860725796707754 L -10.007910935337149 6.737883410606246 L -10.007910935337149 6.737883410606246 L -11.183374031972924 6.72199254223667 M -11.70949340496828 6.00614517608531 L -12.70330488636041 5.895065297380025 L -12.70330488636041 5.895065297380025 L -13.296408623864544 6.700191347485614 L -13.296408623864544 6.700191347485614 L -12.89570087997655 7.616397276296486 L -12.89570087997655 7.616397276296486 L -11.90188939858442 7.72747715500177 L -11.90188939858442 7.72747715500177 L -11.308785661080286 6.922351104896181 L -11.308785661080286 6.922351104896181 L -11.709493404968281 6.00614517608531 M -14.465089672407828 7.835659803936777 L -13.073430810217166 7.584093488055275 L -13.073430810217166 7.584093488055275 L -13.324997126098669 6.192434625864613 L -13.324997126098669 6.192434625864613 L -14.71665598828933 6.444000941746116 L -14.71665598828933 6.444000941746116 L -14.465089672407828 7.835659803936777 M -14.726498070846466 6.219464861186521 L -15.896414262966 6.1043036061280835 L -15.896414262966 6.1043036061280835 L -16.367463110373414 7.181373239255974 L -16.367463110373414 7.181373239255974 L -15.48867111631313 7.962200135837827 L -15.48867111631313 7.962200135837827 L -14.474498947535158 7.367708064127622 L -14.474498947535158 7.367708064127622 L -14.726498070846466 6.219464861186521 M -17.631034851306616 7.9998584504956405 L -16.61121966331193 6.599866671114292 L -16.61121966331193 6.599866671114292 L -18.3335557033429 6.416676700836361 L -18.3335557033429 6.416676700836361 L -17.631034851306616 7.9998584504956405 M -18.47256387101074 7.905129707945744 L -17.95664017113493 7.048495167487298 L -17.95664017113493 7.048495167487298 L -18.440545594993246 6.173374866751164 L -18.440545594993246 6.173374866751164 L -19.440374718727373 6.154889106473475 L -19.440374718727373 6.154889106473475 L -19.956298418603186 7.011523646931922 L -19.956298418603186 7.011523646931922 L -19.472392994744865 7.886643947668056 L -19.472392994744865 7.886643947668056 L -18.47256387101074 7.905129707945743 M -21.014980470982426 5.933055785775282 L -22.104503193739756 6.374537662918115 L -22.104503193739756 6.374537662918115 L -22.021310014746525 7.5471607507938 L -22.021310014746525 7.5471607507938 L -20.880371079739227 7.830399797950995 L -20.880371079739227 7.830399797950995 L -20.258425217809837 6.832828068159591 L -20.258425217809837 6.832828068159591 L -21.014980470982422 5.933055785775283 M -22.490242098727858 6.407080922234721 L -23.198395521026207 7.631220918512571 L -23.198395521026207 7.631220918512571 L -21.974255524748354 8.33937434081092 L -21.974255524748354 8.33937434081092 L -21.266102102450006 7.115234344533071 L -21.266102102450006 7.115234344533071 L -22.490242098727858 6.407080922234721 M -22.839518881083762 7.208668786759175 L -24.197331478992588 6.133333978915549 L -24.197331478992588 6.133333978915549 L -24.449692441204416 7.846901586204949 L -24.449692441204416 7.846901586204949 L -22.839518881083762 7.2086687867591746 M -26.155907874794515 7.633265795803809 L -25.171597963606377 7.8097140849335185 L -25.171597963606377 7.8097140849335185 L -24.52663430717168 7.045500841212641 L -24.52663430717168 7.045500841212641 L -24.86598056192512 6.104839308362055 L -24.86598056192512 6.104839308362055 L -25.850290473113258 5.928391019232346 L -25.850290473113258 5.928391019232346 L -26.495254129547956 6.692604262953224 L -26.495254129547956 6.692604262953224 L -26.155907874794515 7.633265795803809 M -28.33580949459893 7.581156882559355 L -27.235697546129053 8.469837759383998 L -27.235697546129053 8.469837759383998 L -26.347016669304413 7.369725810914121 L -26.347016669304413 7.369725810914121 L -27.44712861777429 6.481044934089479 L -27.44712861777429 6.481044934089479 L -28.33580949459893 7.581156882559355 M -28.753138641766512 7.891130980807803 L -29.2574701980133 6.569900614303274 L -29.2574701980133 6.569900614303274 L -30.57870056451783 7.0742321705500615 L -30.57870056451783 7.0742321705500615 L -30.07436900827104 8.395462537054591 L -30.07436900827104 8.395462537054591 L -28.753138641766512 7.891130980807803 M -1.6915947130985418 9.429918519670743 L 0.025547698820927334 9.203154463463882 L 0.025547698820927334 9.203154463463882 L -1.0294069404791508 7.829447540929369 L -1.0294069404791508 7.829447540929369 L -1.6915947130985414 9.429918519670743 M -3.2685460373358506 9.017180397602779 L -2.1030160849500565 10.298406345705443 L -2.1030160849500565 10.298406345705443 L -1.5762068420982447 8.648414824016347 L -1.5762068420982447 8.648414824016347 L -3.2685460373358506 9.01718039760278 M -3.542337348918525 7.808205855906439 L -4.951235042103726 7.9307101012917265 L -4.951235042103726 7.9307101012917265 L -4.828730796718439 9.339607794476928 L -4.828730796718439 9.339607794476928 L -3.4198331035332377 9.21710354909164 L -3.4198331035332377 9.21710354909164 L -3.542337348918525 7.808205855906439 M -6.604112386014142 9.9231056957444 L -5.435062348562899 10.046750433543274 L -5.435062348562899 10.046750433543274 L -4.956212886126572 8.973126102795062 L -4.956212886126572 8.973126102795062 L -5.8293176802975495 8.185945037444935 L -5.8293176802975495 8.185945037444935 L -6.847775581272021 8.773064714506416 L -6.847775581272021 8.773064714506416 L -6.604112386014142 9.9231056957444 M -7.87752278978782 9.625849775224374 L -6.881182567216213 9.540373691516947 L -6.881182567216213 9.540373691516947 L -6.457036915837045 8.63477970610398 L -6.457036915837045 8.63477970610398 L -7.0292314870294845 7.8146618043984395 L -7.0292314870294845 7.8146618043984395 L -8.025571709601094 7.900137888105866 L -8.025571709601094 7.900137888105866 L -8.44971736098026 8.805731873518834 L -8.44971736098026 8.805731873518834 L -7.877522789787819 9.625849775224374 M -9.29187782025887 8.170665666172185 L -8.972287815583853 9.872976515844426 L -8.972287815583853 9.872976515844426 L -7.657838376967328 8.745048028164154 L -7.657838376967328 8.745048028164154 L -9.29187782025887 8.170665666172185 M -11.494901993145547 9.231386455816649 L -9.829288175364736 9.70649761125044 L -9.829288175364736 9.70649761125044 L -10.250636754028102 8.026478154440976 L -10.250636754028102 8.026478154440976 L -11.494901993145547 9.231386455816649 M -12.98029484050135 8.218962823402759 L -13.427057129598028 9.892403427977984 L -13.427057129598028 9.892403427977984 L -11.754433909763154 9.442590617500983 L -11.754433909763154 9.442590617500983 L -12.98029484050135 8.218962823402759 M -14.030596167395863 7.763061586396128 L -14.59956376681912 9.05777231501721 L -14.59956376681912 9.05777231501721 L -13.304853038198036 9.626739914440467 L -13.304853038198036 9.626739914440467 L -12.73588543877478 8.332029185819383 L -12.73588543877478 8.332029185819383 L -14.030596167395863 7.763061586396128 M -16.277671976673087 7.580130975025184 L -17.12587168875616 8.394086293007872 L -17.12587168875616 8.394086293007872 L -16.613862305273237 9.452298182222664 L -16.613862305273237 9.452298182222664 L -15.449223391638839 9.292353779073958 L -15.449223391638839 9.292353779073958 L -15.24144634187495 8.135290812402946 L -15.24144634187495 8.135290812402946 L -16.277671976673087 7.580130975025184 M -16.2268886557254 8.538436786314088 L -17.954061972690056 8.668330331824652 L -17.954061972690056 8.668330331824652 L -16.977984204007953 10.099159528299396 L -16.977984204007953 10.099159528299396 L -16.2268886557254 8.538436786314088 M -20.053156838753353 10.054169383675214 L -19.068281803620547 10.227435552248746 L -19.068281803620547 10.227435552248746 L -18.425791382453067 9.46114183655741 L -18.425791382453067 9.46114183655741 L -18.768175996418393 8.521581952292541 L -18.768175996418393 8.521581952292541 L -19.7530510315512 8.348315783719007 L -19.7530510315512 8.348315783719007 L -20.39554145271868 9.114609499410346 L -20.39554145271868 9.114609499410346 L -20.053156838753353 10.054169383675214 M -19.704785837507433 9.549669877505213 L -19.945315116079815 8.398969361558706 L -19.945315116079815 8.398969361558706 L -21.114023974798545 8.27214028444125 L -21.114023974798545 8.27214028444125 L -21.59579649386744 9.344456119967386 L -21.59579649386744 9.344456119967386 L -20.724839426778942 10.134012830114738 L -20.724839426778942 10.134012830114738 L -19.704785837507433 9.549669877505213 M -23.433749566607005 8.608181377973422 L -23.386231429126127 9.607051753252591 L -23.386231429126127 9.607051753252591 L -22.497425240306235 10.065335026693216 L -22.497425240306235 10.065335026693216 L -21.656137188967215 9.52474792485467 L -21.656137188967215 9.52474792485467 L -21.703655326448093 8.525877549575501 L -21.703655326448093 8.525877549575501 L -22.592461515267985 8.067594276134878 L -22.592461515267985 8.067594276134878 L -23.433749566607005 8.608181377973422 M -23.4536430432261 9.158981995174024 L -23.727736637087418 8.197278973548226 L -23.727736637087418 8.197278973548226 L -24.69764268164227 7.953799478033802 L -24.69764268164227 7.953799478033802 L -25.39345513233581 8.672023004145176 L -25.39345513233581 8.672023004145176 L -25.119361538474493 9.633726025770972 L -25.119361538474493 9.633726025770972 L -24.14945549391964 9.877205521285395 L -24.14945549391964 9.877205521285395 L -23.4536430432261 9.158981995174022 M -24.63870269078324 8.35933556776777 L -26.364270650110296 8.20961844201434 L -26.364270650110296 8.20961844201434 L -25.631145504730828 9.778862693624756 L -25.631145504730828 9.778862693624756 L -24.63870269078324 8.35933556776777 M -26.984758307218264 7.899890333700105 L -28.094672262813337 8.287262276960584 L -28.094672262813337 8.287262276960584 L -28.06924192651834 9.462557690567746 L -28.06924192651834 9.462557690567746 L -26.94361115874762 9.801558259738359 L -26.94361115874762 9.801558259738359 L -26.273363421777667 8.835776720084194 L -26.273363421777667 8.835776720084194 L -26.984758307218264 7.899890333700106 M -29.582818402901616 10.010695198654794 L -28.25424000354864 9.52605158034059 L -28.25424000354864 9.52605158034059 L -28.738883621862847 8.197473180987615 L -28.738883621862847 8.197473180987615 L -30.06746202121582 8.682116799301818 L -30.06746202121582 8.682116799301818 L -29.582818402901616 10.010695198654794 M -0.6627434337559818 11.003663302084455 L 0.9595009432697207 10.39676695079497 L 0.9595009432697207 10.39676695079497 L -0.3772089029239099 9.295310284788993 L -0.3772089029239099 9.295310284788993 L -0.6627434337559812 11.003663302084455 M -2.612212020063051 11.588872233469813 L -1.0387150972031383 10.86491958740076 L -1.0387150972031383 10.86491958740076 L -2.4524249412658596 9.864207602461958 L -2.4524249412658596 9.864207602461958 L -2.6122120200630508 11.588872233469813 M -3.341838349818435 10.10753350073785 L -5.073457469129971 10.068865353190557 L -5.073457469129971 10.068865353190557 L -4.241135507567443 11.58782557396683 L -4.241135507567443 11.58782557396683 L -3.3418383498184356 10.10753350073785 M -4.4873632602018905 11.251806686051555 L -4.794126778390581 10.300020920288851 L -4.794126778390581 10.300020920288851 L -5.771779189595852 10.089793037113195 L -5.771779189595852 10.089793037113195 L -6.4426680826124345 10.831350919700242 L -6.4426680826124345 10.831350919700242 L -6.135904564423743 11.783136685462946 L -6.135904564423743 11.783136685462946 L -5.158252153218472 11.993364568638603 L -5.158252153218472 11.993364568638603 L -4.4873632602018905 11.251806686051554 M -7.1405719295580194 9.761043621527438 L -8.130776697683322 10.394652750590478 L -8.130776697683322 10.394652750590478 L -7.834168707965644 11.532189436454166 L -7.834168707965644 11.532189436454166 L -6.660650120860039 11.6016166427048 L -6.660650120860039 11.6016166427048 L -6.231983737316697 10.506988330047951 L -6.231983737316697 10.506988330047951 L -7.140571929558019 9.76104362152744 M -8.477614713311247 10.23264742848803 L -10.010535937049847 11.038967787781875 L -10.010535937049847 11.038967787781875 L -8.545781410443482 11.963356329892909 L -8.545781410443482 11.963356329892909 L -8.47761471331125 10.232647428488029 M -10.69862441642498 9.873302950728972 L -11.522640463228065 10.439869411623912 L -11.522640463228065 10.439869411623912 L -11.443987538562347 11.43677147172888 L -11.443987538562347 11.43677147172888 L -10.541318567093544 11.867107070938909 L -10.541318567093544 11.867107070938909 L -9.71730252029046 11.300540610043969 L -9.71730252029046 11.300540610043969 L -9.795955444956178 10.303638549939 L -9.795955444956178 10.303638549939 L -10.69862441642498 9.873302950728974 M -11.217721079028818 10.422669864233448 L -12.702362484690306 9.530571272935669 L -12.702362484690306 9.530571272935669 L -12.732621824603749 11.262357741397645 L -12.732621824603749 11.262357741397645 L -11.217721079028818 10.422669864233447 M -13.81720604069778 10.088226747037437 L -14.959965313424572 10.921354135014168 L -14.959965313424572 10.921354135014168 L -14.126837925447843 12.06411340774096 L -14.126837925447843 12.06411340774096 L -12.984078652721049 11.23098601976423 L -12.984078652721049 11.23098601976423 L -13.817206040697778 10.088226747037437 M -15.697909741448042 9.353544078820189 L -16.883991746231803 10.123745012296725 L -16.883991746231803 10.123745012296725 L -16.11379081275527 11.30982701708049 L -16.11379081275527 11.30982701708049 L -14.927708807971504 10.539626083603954 L -14.927708807971504 10.539626083603954 L -15.69790974144804 9.353544078820189 M -18.146854037948312 11.046022198583291 L -16.46580511699377 11.463244591747385 L -16.46580511699377 11.463244591747385 L -16.9450043859632 9.798802324614288 L -16.9450043859632 9.798802324614288 L -18.146854037948312 11.046022198583291 M -18.044314067004827 10.237286158253557 L -19.774540098098072 10.157801056962128 L -19.774540098098072 10.157801056962128 L -18.978263199492208 11.695963304823719 L -18.978263199492208 11.695963304823719 L -18.044314067004827 10.237286158253555 M -21.845757027333025 10.242144603934173 L -21.600391909342626 11.39182367659909 L -21.600391909342626 11.39182367659909 L -20.431160144350642 11.51373795379348 L -20.431160144350642 11.51373795379348 L -19.953900290849962 10.439406048148575 L -19.953900290849962 10.439406048148575 L -20.828169244912736 9.653518138067186 L -20.828169244912736 9.653518138067186 L -21.845757027333025 10.242144603934173 M -23.530142079976084 10.605652356080348 L -23.040949306240858 11.93256246235177 L -23.040949306240858 11.93256246235177 L -21.714039199969438 11.443369688616542 L -21.714039199969438 11.443369688616542 L -22.203231973704664 10.11645958234512 L -22.203231973704664 10.11645958234512 L -23.530142079976084 10.605652356080348 M -24.221417977273806 9.510426656170305 L -25.586153535922886 10.576961632136301 L -25.586153535922886 10.576961632136301 L -23.980139373387168 11.225589807391353 L -23.980139373387168 11.225589807391353 L -24.221417977273806 9.510426656170305 M -25.828385673745203 9.379705966295715 L -26.868112240119945 10.764974412184307 L -26.868112240119945 10.764974412184307 L -25.148571291732065 10.972769808710103 L -25.148571291732065 10.972769808710103 L -25.828385673745206 9.379705966295715 M -28.884630128954704 10.329357399327263 L -28.10712878896547 11.21109300457696 L -28.10712878896547 11.21109300457696 L -27.028287268737326 10.74411657531962 L -27.028287268737326 10.74411657531962 L -27.139027880750962 9.573773664843827 L -27.139027880750962 9.573773664843827 L -28.286310863138496 9.31743839693465 L -28.286310863138496 9.31743839693465 L -28.884630128954704 10.329357399327263 M -28.105816462275833 10.239616371964447 L -29.503493013397332 10.023977186181556 L -29.503493013397332 10.023977186181556 L -29.719132199180223 11.421653737303055 L -29.719132199180223 11.421653737303055 L -28.321455648058723 11.637292923085946 L -28.321455648058723 11.637292923085946 L -28.105816462275833 10.239616371964447 M -0.04373955669713536 11.437103312221685 L -1.7221033706934792 11.864999219969874 L -1.7221033706934792 11.864999219969874 L -0.5123527374099736 13.104556965809154 L -0.5123527374099736 13.104556965809154 L -0.043739556697135806 11.437103312221685 M -2.3575892160604344 11.675399580394638 L -3.2936532786720103 12.386560660556661 L -3.2936532786720103 12.386560660556661 L -2.906558602419048 13.496571346481225 L -2.906558602419048 13.496571346481225 L -1.7312568730190052 13.471434598096165 L -1.7312568730190052 13.471434598096165 L -1.3919751334662087 12.345888547302982 L -1.3919751334662087 12.345888547302982 L -2.357589216060434 11.675399580394638 M -2.651835022926672 11.795901949725168 L -4.36944023256502 12.019133542075373 L -4.36944023256502 12.019133542075373 L -3.317313397843315 13.395007491119575 L -3.317313397843315 13.395007491119575 L -2.651835022926672 11.795901949725167 M -6.083356298652659 10.971359551793725 L -6.70560648464903 12.24132203392754 L -6.70560648464903 12.24132203392754 L -5.435644002515214 12.86357221992391 L -5.435644002515214 12.86357221992391 L -4.813393816518843 11.593609737790095 L -4.813393816518843 11.593609737790095 L -6.083356298652659 10.971359551793723 M -6.542400081946047 11.482799638847824 L -7.950380252577935 11.35016540832115 L -7.950380252577935 11.35016540832115 L -8.08301448310461 12.758145578953036 L -8.08301448310461 12.758145578953036 L -6.675034312472722 12.89077980947971 L -6.675034312472722 12.89077980947971 L -6.542400081946047 11.482799638847824 M -8.497266309438084 11.857593016091762 L -9.593146186932444 11.432136431522844 L -9.593146186932444 11.432136431522844 L -10.336424950026688 12.342906815090073 L -10.336424950026688 12.342906815090073 L -9.699916611240548 13.331250452650318 L -9.699916611240548 13.331250452650318 L -8.56325406065374 13.031310029660027 L -8.56325406065374 13.031310029660027 L -8.497266309438084 11.857593016091762 M -11.48390186522924 12.311407179267585 L -11.047488762397137 13.40297010229427 L -11.047488762397137 13.40297010229427 L -9.874491666163403 13.325228070694049 L -9.874491666163403 13.325228070694049 L -9.585952694818126 12.185617929783959 L -9.585952694818126 12.185617929783959 L -10.580622899681549 11.559042160377688 L -10.580622899681549 11.559042160377688 L -11.48390186522924 12.311407179267585 M -12.223310541645809 11.772011390628876 L -13.220992799398598 11.840056321118201 L -13.220992799398598 11.840056321118201 L -13.66090528987249 12.738096966481793 L -13.66090528987249 12.738096966481793 L -13.103135522593593 13.56809268135606 L -13.103135522593593 13.56809268135606 L -12.105453264840804 13.500047750866734 L -12.105453264840804 13.500047750866734 L -11.665540774366912 12.60200710550314 L -11.665540774366912 12.60200710550314 L -12.22331054164581 11.772011390628876 M -12.806549777689407 11.864387244248833 L -14.146184896905421 11.4112010271558 L -14.146184896905421 11.4112010271558 L -14.599371113998453 12.750836146371816 L -14.599371113998453 12.750836146371816 L -13.259735994782439 13.20402236346485 L -13.259735994782439 13.20402236346485 L -12.806549777689405 11.864387244248833 M -15.439463689129449 10.967233792179636 L -16.440189011980948 12.380934194741569 L -16.440189011980948 12.380934194741569 L -14.715525888596275 12.54073754526038 L -14.715525888596275 12.54073754526038 L -15.43946368912945 10.967233792179636 M -16.41281512626628 12.84240396661473 L -16.792188940073135 11.480025344719317 L -16.792188940073135 11.480025344719317 L -18.15456756196855 11.859399158526172 L -18.15456756196855 11.859399158526172 L -17.775193748161694 13.221777780421585 L -17.775193748161694 13.221777780421585 L -16.41281512626628 12.84240396661473 M -18.60525239046115 11.805425960629876 L -19.576439918287015 12.043742526976997 L -19.576439918287015 12.043742526976997 L -19.85564548160066 13.003973881086365 L -19.85564548160066 13.003973881086365 L -19.16366351708844 13.725888668848611 L -19.16366351708844 13.725888668848611 L -18.192475989262576 13.48757210250149 L -18.192475989262576 13.48757210250149 L -17.91327042594893 12.527340748392122 L -17.91327042594893 12.527340748392122 L -18.60525239046115 11.805425960629877 M -21.417229072623762 12.61321747928343 L -20.029423807715787 12.885240542080867 L -20.029423807715787 12.885240542080867 L -19.75740074491835 11.497435277172888 L -19.75740074491835 11.497435277172888 L -21.145206009826325 11.225412214375451 L -21.145206009826325 11.225412214375451 L -21.417229072623762 12.61321747928343 M -22.886063582450433 11.543772420892646 L -23.758579726239454 13.040006219076451 L -23.758579726239454 13.040006219076451 L -22.026545175116887 13.047510465717878 L -22.026545175116887 13.047510465717878 L -22.886063582450433 11.543772420892646 M -23.797147987426474 13.087962561650421 L -23.249035257234755 12.25155809310558 L -23.249035257234755 12.25155809310558 L -23.69932640973755 11.358676310349484 L -23.69932640973755 11.358676310349484 L -24.697730292432066 11.30219899613823 L -24.697730292432066 11.30219899613823 L -25.245843022623784 12.138603464683072 L -25.245843022623784 12.138603464683072 L -24.79555187012099 13.031485247439168 L -24.79555187012099 13.031485247439168 L -23.797147987426474 13.087962561650421 M -25.11118558407949 12.224048783907868 L -25.839290184346677 11.011669432768235 L -25.839290184346677 11.011669432768235 L -27.051669535486308 11.739774033035422 L -27.051669535486308 11.739774033035422 L -26.32356493521912 12.952153384175057 L -26.32356493521912 12.952153384175057 L -25.11118558407949 12.22404878390787 M -28.79183560818908 11.530650925292038 L -28.789577096803626 12.530648374851948 L -28.789577096803626 12.530648374851948 L -27.922424646072372 13.028691171397362 L -27.922424646072372 13.028691171397362 L -27.05753070672657 12.526736518382869 L -27.05753070672657 12.526736518382869 L -27.059789218112023 11.52673906882296 L -27.059789218112023 11.52673906882296 L -27.926941668843277 11.028696272277546 L -27.926941668843277 11.028696272277546 L -28.79183560818908 11.53065092529204 M -29.51198923790655 13.545299424325604 L -28.712847837200275 12.008623459238231 L -28.712847837200275 12.008623459238231 L -30.443218960704048 12.084884687554402 L -30.443218960704048 12.084884687554402 L -29.51198923790655 13.545299424325604 M -1.4851062481309654 13.6798039973765 L -0.7358898469225017 14.5856962621687 L -0.7358898469225017 14.5856962621687 L 0.35718549500735003 14.153085226577787 L 0.35718549500735003 14.153085226577787 L 0.283526807375948 12.97982463788211 L 0.283526807375948 12.97982463788211 L -0.8550721070768216 12.687320751998385 L -0.8550721070768216 12.687320751998385 L -1.4851062481309651 13.6798039973765 M -2.1157303275728907 14.974098055724799 L -1.1493092277479944 14.304772821579737 L -1.1493092277479944 14.304772821579737 L -1.4872348096340147 13.178818864991324 L -1.4872348096340147 13.178818864991324 L -2.662505404732558 13.152266284197324 L -2.662505404732558 13.152266284197324 L -3.0509369965957527 14.261809843366017 L -3.0509369965957527 14.261809843366017 L -2.1157303275728916 14.974098055724799 M -4.524569404592079 14.856976417673348 L -3.4188811317602816 15.256250076424264 L -3.4188811317602816 15.256250076424264 L -2.6974728500341065 14.328060385516746 L -2.6974728500341065 14.328060385516746 L -3.357306284993468 13.355133949777725 L -3.357306284993468 13.355133949777725 L -4.486514056438121 13.682022034845236 L -4.486514056438121 13.682022034845236 L -4.524569404592079 14.856976417673348 M -5.897600416152516 14.710729078628708 L -4.9018433749875605 13.706504046591359 L -4.9018433749875605 13.706504046591359 L -5.906068407024909 12.710747005426404 L -5.906068407024909 12.710747005426404 L -6.901825448189864 13.714972037463752 L -6.901825448189864 13.714972037463752 L -5.897600416152516 14.710729078628708 M -7.5776344202369295 14.673572309370071 L -6.592320247130251 14.844323532718843 L -6.592320247130251 14.844323532718843 L -5.951788263429606 14.076392039773987 L -5.951788263429606 14.076392039773987 L -6.296570452835638 13.13770932348036 L -6.296570452835638 13.13770932348036 L -7.281884625942317 12.966958100131588 L -7.281884625942317 12.966958100131588 L -7.922416609642963 13.734889593076444 L -7.922416609642963 13.734889593076444 L -7.577634420236929 14.673572309370071 M -9.71437873022934 12.747281253351689 L -10.238041988081115 13.599206597719414 L -10.238041988081115 13.599206597719414 L -9.762084626656744 14.478674954231433 L -9.762084626656744 14.478674954231433 L -8.762464007380602 14.506217966375727 L -8.762464007380602 14.506217966375727 L -8.238800749528828 13.654292622008002 L -8.238800749528828 13.654292622008002 L -8.714758110953198 12.774824265495983 L -8.714758110953198 12.774824265495983 L -9.714378730229342 12.747281253351689 M -10.72449068632072 14.750610412139977 L -9.391853800224867 14.277240651998133 L -9.391853800224867 14.277240651998133 L -9.865223560366712 12.94460376590228 L -9.865223560366712 12.94460376590228 L -11.197860446462565 13.417973526044124 L -11.197860446462565 13.417973526044124 L -10.72449068632072 14.750610412139977 M -12.093597235405417 15.117155056424238 L -11.855414966101435 13.965966445535773 L -11.855414966101435 13.965966445535773 L -12.876658026997953 13.383704801752831 L -12.876658026997953 13.383704801752831 L -13.746003218710962 14.175035926438051 L -13.746003218710962 14.175035926438051 L -13.262045034249377 15.246367101632142 L -13.262045034249377 15.246367101632142 L -12.093597235405417 15.117155056424238 M -14.18771941594499 13.373461700387987 L -14.71468920753636 14.223345715268929 L -14.71468920753636 14.223345715268929 L -14.242152956174838 15.104656949254515 L -14.242152956174838 15.104656949254515 L -13.242646913221947 15.136084168359163 L -13.242646913221947 15.136084168359163 L -12.715677121630577 14.286200153478221 L -12.715677121630577 14.286200153478221 L -13.188213372992099 13.404888919492635 L -13.188213372992099 13.404888919492635 L -14.18771941594499 13.373461700387988 M -16.417213051908952 14.300985141098039 L -15.291806987731029 15.15740862904752 L -15.291806987731029 15.15740862904752 L -14.435383499781548 14.032002564869597 L -14.435383499781548 14.032002564869597 L -15.56078956395947 13.175579076920116 L -15.56078956395947 13.175579076920116 L -16.417213051908952 14.300985141098039 M -18.325639500826234 13.52843071558006 L -18.16416326504162 14.692858230081042 L -18.16416326504162 14.692858230081042 L -17.006827988576948 14.899113094509854 L -17.006827988576948 14.899113094509854 L -16.45303168712714 13.862158096570878 L -16.45303168712714 13.862158096570878 L -17.268102026451846 13.015029798611703 L -17.268102026451846 13.015029798611703 L -18.325639500826234 13.528430715580058 M -18.19649660847446 13.461461106610031 L -19.893797322680516 13.806671601171843 L -19.893797322680516 13.806671601171843 L -18.746185907633972 15.103971890254853 L -18.746185907633972 15.103971890254853 L -18.19649660847446 13.46146110661003 M -21.323336139067337 12.989817830771898 L -22.14585744123698 14.140234584595117 L -22.14585744123698 14.140234584595117 L -20.995440687413762 14.96275588676476 L -20.995440687413762 14.96275588676476 L -20.172919385244118 13.812339132941542 L -20.172919385244118 13.812339132941542 L -21.323336139067337 12.989817830771898 M -23.723690528492575 14.15204533261341 L -22.241037371759 15.047444470890841 L -22.241037371759 15.047444470890841 L -22.206925549850837 13.315729603019658 L -22.206925549850837 13.315729603019658 L -23.723690528492575 14.15204533261341 M -24.061275409343533 12.800993562470135 L -25.061195119398395 12.788321804746523 L -25.061195119398395 12.788321804746523 L -25.57212903852507 13.647941796536998 L -25.57212903852507 13.647941796536998 L -25.08314324759689 14.520233546051081 L -25.08314324759689 14.520233546051081 L -24.08322353754203 14.53290530377469 L -24.08322353754203 14.53290530377469 L -23.572289618415354 13.673285311984216 L -23.572289618415354 13.673285311984216 L -24.061275409343533 12.800993562470135 M -24.774319294722332 14.159424298969077 L -26.36884350470243 13.483042347859094 L -26.36884350470243 13.483042347859094 L -26.15734535203491 15.202131796206162 L -26.15734535203491 15.202131796206162 L -24.774319294722332 14.159424298969077 M -27.708707725410473 15.432945114910872 L -26.587369842979903 15.080004093384293 L -26.587369842979903 15.080004093384293 L -26.57652423926316 13.90448361966632 L -26.57652423926316 13.90448361966632 L -27.691159169968273 13.530913033963817 L -27.691159169968273 13.530913033963817 L -28.39088704590866 14.475554188520436 L -28.39088704590866 14.475554188520436 L -27.708707725410473 15.432945114910872 M -27.9385743539854 13.796306469744755 L -29.32030480734883 12.751882727077014 L -29.32030480734883 12.751882727077014 L -29.533937074133 14.470708272206204 L -29.533937074133 14.470708272206204 L -27.9385743539854 13.796306469744753 M -1.525522014165033 16.829627263031764 L -0.5770256824029543 17.146415376182937 L -0.5770256824029543 17.146415376182937 L 0.17156903708394 16.483387514056208 L 0.17156903708394 16.483387514056208 L -0.028332575191244214 15.50357153877831 L -0.028332575191244214 15.50357153877831 L -0.976828906953323 15.186783425627137 L -0.976828906953323 15.186783425627137 L -1.7254236264402172 15.849811287753864 L -1.7254236264402172 15.849811287753864 L -1.5255220141650319 16.829627263031764 M -1.7205260529944453 16.22241251389523 L -1.3382785899791727 15.298352517456475 L -1.3382785899791727 15.298352517456475 L -1.9474142900084543 14.505286505733721 L -1.9474142900084543 14.505286505733721 L -2.9387974530530085 14.636280490449717 L -2.9387974530530085 14.636280490449717 L -3.3210449160682805 15.560340486888471 L -3.3210449160682805 15.560340486888471 L -2.7119092160389986 16.353406498611225 L -2.7119092160389986 16.353406498611225 L -1.720526052994445 16.22241251389523 M -2.4090030075244044 16.0754498699807 L -3.5144561250841297 15.1934218631252 L -3.5144561250841297 15.1934218631252 L -4.396484131939628 16.29887498068493 L -4.396484131939628 16.29887498068493 L -3.2910310143799038 17.180902987540424 L -3.2910310143799038 17.180902987540424 L -2.4090030075244044 16.0754498699807 M -6.845429962537841 15.65935043549491 L -6.760307031191604 16.655720891981364 L -6.760307031191604 16.655720891981364 L -5.854863438620919 17.08018749923415 L -5.854863438620919 17.08018749923415 L -5.034542777396471 16.508283650000482 L -5.034542777396471 16.508283650000482 L -5.119665708742708 15.51191319351403 L -5.119665708742708 15.51191319351403 L -6.025109301313393 15.087446586261244 L -6.025109301313393 15.087446586261244 L -6.845429962537841 15.659350435494911 M -7.91401093595666 16.57075023049886 L -6.916140517160643 16.63597773460458 L -6.916140517160643 16.63597773460458 L -6.360716632181626 15.804410354295076 L -6.360716632181626 15.804410354295076 L -6.803163165998626 14.907615469879849 L -6.803163165998626 14.907615469879849 L -7.801033584794642 14.842387965774126 L -7.801033584794642 14.842387965774126 L -8.356457469773659 15.673955346083634 L -8.356457469773659 15.673955346083634 L -7.914010935956659 16.57075023049886 M -9.758032575126391 16.66896423558081 L -8.368211749782212 16.407433982188163 L -8.368211749782212 16.407433982188163 L -8.629742003174854 15.017613156843982 L -8.629742003174854 15.017613156843982 L -10.019562828519035 15.279143410236626 L -10.019562828519035 15.279143410236626 L -9.758032575126393 16.66896423558081 M -10.299780024761315 15.496922081201507 L -11.986405260114932 15.890997347449414 L -11.986405260114932 15.890997347449414 L -10.801813450864321 17.1546200148056 L -10.801813450864321 17.1546200148056 L -10.299780024761317 15.496922081201507 M -12.982055084285557 16.99101464564302 L -11.830684891554602 16.7537116946694 L -11.830684891554602 16.7537116946694 L -11.700580453043512 15.585362925538442 L -11.700580453043512 15.585362925538442 L -12.771541680687394 15.10058662647503 L -12.771541680687394 15.10058662647503 L -13.563536558515715 15.969327165844414 L -13.563536558515715 15.969327165844414 L -12.982055084285557 16.99101464564302 M -13.77450386500822 15.069258164752386 L -14.691130995887361 15.469001461051747 L -14.691130995887361 15.469001461051747 L -14.803256711739154 16.462695490340803 L -14.803256711739154 16.462695490340803 L -13.998755296711808 17.0566462233305 L -13.998755296711808 17.0566462233305 L -13.08212816583267 16.65690292703114 L -13.08212816583267 16.65690292703114 L -12.970002449980877 15.663208897742082 L -12.970002449980877 15.663208897742082 L -13.774503865008223 15.069258164752386 M -15.967926207504407 16.421513206352767 L -15.076546350315937 15.655087762197386 L -15.076546350315937 15.655087762197386 L -15.530008738919568 14.57049665335867 L -15.530008738919568 14.57049665335867 L -16.701643764884793 14.666607928355788 L -16.701643764884793 14.666607928355788 L -16.972291644737535 15.810599071844809 L -16.972291644737535 15.810599071844809 L -15.967926207504407 16.421513206352767 M -17.270110892751863 16.636395733241795 L -16.498854205057537 15.749192750302216 L -16.498854205057537 15.749192750302216 L -17.104302959735843 14.741523252545836 L -17.104302959735843 14.741523252545836 L -18.249747556267657 15.005952236445435 L -18.249747556267657 15.005952236445435 L -18.352222494475924 16.177047833862368 L -18.352222494475924 16.177047833862368 L -17.270110892751863 16.636395733241795 M -18.69876250092936 16.034182111331006 L -18.937920755160572 14.640337310274205 L -18.937920755160572 14.640337310274205 L -20.331765556217373 14.879495564505417 L -20.331765556217373 14.879495564505417 L -20.09260730198616 16.27334036556222 L -20.09260730198616 16.27334036556222 L -18.69876250092936 16.034182111331006 M -20.36872438759041 15.388902257919979 L -21.691112932941756 14.887615378854155 L -21.691112932941756 14.887615378854155 L -22.19239981200758 16.210003924205502 L -22.19239981200758 16.210003924205502 L -20.870011266656235 16.711290803271325 L -20.870011266656235 16.711290803271325 L -20.36872438759041 15.388902257919979 M -21.72706797743486 14.915302887358964 L -22.717441663067998 14.776883369929381 L -22.717441663067998 14.776883369929381 L -23.332503324358164 15.565362382212511 L -23.332503324358164 15.565362382212511 L -22.957191300015197 16.492260911925218 L -22.957191300015197 16.492260911925218 L -21.966817614382062 16.6306804293548 L -21.966817614382062 16.6306804293548 L -21.351755953091896 15.842201417071673 L -21.351755953091896 15.842201417071673 L -21.727067977434864 14.915302887358964 M -25.1884816325873 16.847828409508914 L -23.80980292464012 16.532796632932175 L -23.80980292464012 16.532796632932175 L -24.12483470121686 15.154117924984996 L -24.12483470121686 15.154117924984996 L -25.50351340916404 15.469149701561737 L -25.50351340916404 15.469149701561737 L -25.1884816325873 16.847828409508914 M -25.950805478175823 15.063182914420059 L -27.271564516074086 15.56874751346755 L -27.271564516074086 15.56874751346755 L -26.765999917026598 16.889506551365812 L -26.765999917026598 16.889506551365812 L -25.445240879128335 16.383941952318324 L -25.445240879128335 16.383941952318324 L -25.950805478175823 15.063182914420059 M -27.60275450425416 16.958409326057883 L -26.70554037601819 16.51681357416055 L -26.70554037601819 16.51681357416055 L -26.639366451246584 15.519005470525228 L -26.639366451246584 15.519005470525228 L -27.470406654710946 14.962793118787234 L -27.470406654710946 14.962793118787234 L -28.367620782946915 15.404388870684564 L -28.367620782946915 15.404388870684564 L -28.433794707718523 16.40219697431989 L -28.433794707718523 16.40219697431989 L -27.60275450425416 16.958409326057883 M -28.301753927926256 16.016289462004767 L -28.169737625036834 15.025041916851988 L -28.169737625036834 15.025041916851988 L -28.96217502913339 14.415088672259659 L -28.96217502913339 14.415088672259659 L -29.88662873611937 14.796382972820107 L -29.88662873611937 14.796382972820107 L -30.018645039008792 15.787630517972884 L -30.018645039008792 15.787630517972884 L -29.226207634912235 16.397583762565215 L -29.226207634912235 16.397583762565215 L -28.301753927926256 16.016289462004764 M 0.325243094607363 18.37369922602015 L -0.3624919081576012 16.784038706924367 L -0.3624919081576012 16.784038706924367 L -1.3953107997052248 18.17446494993848 L -1.3953107997052248 18.17446494993848 L 0.3252430946073632 18.37369922602015 M -2.355987443973168 16.021898633023266 L -3.3810177258290914 17.418076602079633 L -3.3810177258290914 17.418076602079633 L -1.6593769954941506 17.607689881287005 L -1.6593769954941506 17.607689881287005 L -2.3559874439731683 16.021898633023266 M -3.2416645835695617 16.5224520303159 L -4.953695741798092 16.7850340427514 L -4.953695741798092 16.7850340427514 L -3.870277469337845 18.136405511630052 L -3.870277469337845 18.136405511630052 L -3.241664583569562 16.5224520303159 M -6.103483163616501 17.406643048426254 L -5.075767316788887 18.378136814839298 L -5.075767316788887 18.378136814839298 L -4.104273550375844 17.350420968011683 L -4.104273550375844 17.350420968011683 L -5.131989397203458 16.37892720159864 L -5.131989397203458 16.37892720159864 L -6.103483163616501 17.406643048426254 M -6.435346345586437 16.290990242101437 L -7.602794305961096 16.428944115070465 L -7.602794305961096 16.428944115070465 L -7.8323536359298895 17.581883196407542 L -7.8323536359298895 17.581883196407542 L -6.806781143910597 18.156484862662907 L -6.806781143910597 18.156484862662907 L -5.943383155946951 17.35866914106397 L -5.943383155946951 17.35866914106397 L -6.435346345586437 16.290990242101437 M -9.318042122363304 17.015711208088664 L -9.72672169504798 18.117957559010442 L -9.72672169504798 18.117957559010442 L -8.804712053654725 18.847247784111524 L -8.804712053654725 18.847247784111524 L -7.826199184633914 18.195727579965276 L -7.826199184633914 18.195727579965276 L -8.143454614543135 17.06377572434454 L -8.143454614543135 17.06377572434454 L -9.318042122363304 17.015711208088664 M -11.35563024978028 17.950723566380326 L -9.903458424507441 17.00669126296918 L -9.903458424507441 17.00669126296918 L -11.44710029389105 16.22108972332846 L -11.44710029389105 16.22108972332846 L -11.35563024978028 17.950723566380326 M -11.821928557207551 17.030549376664418 L -12.990493496870677 16.90240105228902 L -12.990493496870677 16.90240105228902 L -13.473476221206846 17.974172342837015 L -13.473476221206846 17.974172342837015 L -12.603411021162493 18.764711752937416 L -12.603411021162493 18.764711752937416 L -11.58269843077044 18.18152068727776 L -11.58269843077044 18.18152068727776 L -11.821928557207551 17.03054937666442 M -13.995692389819997 18.756174718513403 L -13.441263881388707 17.71955760487464 L -13.441263881388707 17.71955760487464 L -14.255817510946704 16.871932454336974 L -14.255817510946704 16.871932454336974 L -15.313667848104426 17.384688415224215 L -15.313667848104426 17.384688415224215 L -15.152901681920438 18.549214177524306 L -15.152901681920438 18.549214177524306 L -13.995692389819997 18.756174718513403 M -17.023893984813427 17.074676115178487 L -16.369310585977292 18.32827915201596 L -16.369310585977292 18.32827915201596 L -15.115707549139819 17.673695753179825 L -15.115707549139819 17.673695753179825 L -15.770290947975953 16.420092716342353 L -15.770290947975953 16.420092716342353 L -17.023893984813427 17.074676115178487 M -16.800373002055714 16.407679435626132 L -18.214584743060783 16.40540972123625 L -18.214584743060783 16.40540972123625 L -18.216854457450665 17.81962146224132 L -18.216854457450665 17.81962146224132 L -16.802642716445597 17.8218911766312 L -16.802642716445597 17.8218911766312 L -16.800373002055714 16.407679435626132 M -20.255052928345638 17.87364316758329 L -18.674555433673323 18.582182276831706 L -18.674555433673323 18.582182276831706 L -18.851191312825552 16.859161741203614 L -18.851191312825552 16.859161741203614 L -20.255052928345638 17.87364316758329 M -20.144738697336525 16.920287490290054 L -21.188633071797057 16.37968546826298 L -21.188633071797057 16.37968546826298 L -22.02535724960895 17.205432803417697 L -22.02535724960895 17.205432803417697 L -21.49858685624498 18.256374744690035 L -21.49858685624498 18.256374744690035 L -20.336300671067 18.08014524944442 L -20.336300671067 18.08014524944442 L -20.144738697336525 16.920287490290054 M -22.356128668016613 16.539706552431415 L -23.633837347062038 17.145891781129702 L -23.633837347062038 17.145891781129702 L -23.02765211836375 18.423600460175127 L -23.02765211836375 18.423600460175127 L -21.749943439318326 17.81741523147684 L -21.749943439318326 17.81741523147684 L -22.35612866801661 16.539706552431415 M -23.431558804165935 16.581531659241428 L -24.417589025760318 16.41496514969484 L -24.417589025760318 16.41496514969484 L -25.05485496524456 17.18560911572148 L -25.05485496524456 17.18560911572148 L -24.706090683134416 18.122819591294707 L -24.706090683134416 18.122819591294707 L -23.720060461540033 18.289386100841295 L -23.720060461540033 18.289386100841295 L -23.082794522055792 17.518742134814655 L -23.082794522055792 17.518742134814655 L -23.431558804165935 16.581531659241428 M -26.847923145243694 17.347810425615773 L -26.163118232114684 18.303325073438856 L -26.163118232114684 18.303325073438856 L -25.042753443898746 17.9473071629681 L -25.042753443898746 17.9473071629681 L -25.03513483811173 16.77176134587037 L -25.03513483811173 16.77176134587037 L -26.150791069004406 16.401251986041963 L -26.150791069004406 16.401251986041963 L -26.847923145243694 17.347810425615773 M -26.59027007818657 16.523316803722196 L -28.00226878827651 16.60243470753889 L -28.00226878827651 16.60243470753889 L -27.923150884459815 18.01443341762883 L -27.923150884459815 18.01443341762883 L -26.511152174369876 17.935315513812135 L -26.511152174369876 17.935315513812135 L -26.59027007818657 16.523316803722196 M -28.86310236057576 16.369405090662198 L -30.526129570344317 16.853492375735264 L -30.526129570344317 16.853492375735264 L -29.275384078937723 18.051672544043054 L -29.275384078937723 18.051672544043054 L -28.86310236057576 16.369405090662198 M -0.9923693573663425 18.482603999955742 L 0.13558193090162785 19.797033873054577 L 0.13558193090162785 19.797033873054577 L 0.7099359483643916 18.162984466633713 L 0.7099359483643916 18.162984466633713 L -0.9923693573663425 18.482603999955742 M -2.787504518600252 19.154941759663817 L -1.860098847101925 20.222611521562474 L -1.860098847101925 20.222611521562474 L -0.792429085203267 19.295205850064146 L -0.792429085203267 19.295205850064146 L -1.719834756701594 18.22753608816549 L -1.719834756701594 18.22753608816549 L -2.787504518600252 19.154941759663817 M -2.6754955313713262 18.72889762438842 L -3.886808467077551 17.99902025675002 L -3.886808467077551 17.99902025675002 L -4.616685834715955 19.210333192456243 L -4.616685834715955 19.210333192456243 L -3.405372899009731 19.940210560094645 L -3.405372899009731 19.940210560094645 L -2.6754955313713262 18.728897624388424 M -6.220559846502168 18.746762703524077 L -6.369195298492427 19.73565476154237 L -6.369195298492427 19.73565476154237 L -5.587107380643041 20.35882286787806 L -5.587107380643041 20.35882286787806 L -4.6563840108033965 19.993098916195464 L -4.6563840108033965 19.993098916195464 L -4.507748558813137 19.00420685817717 L -4.507748558813137 19.00420685817717 L -5.289836476662523 18.38103875184148 L -5.289836476662523 18.38103875184148 L -6.220559846502168 18.74676270352408 M -8.697404093533683 19.465737129491888 L -8.01290871400529 20.421473540148295 L -8.01290871400529 20.421473540148295 L -6.892428667944572 20.065818542109632 L -6.892428667944572 20.065818542109632 L -6.884429295291395 18.89027525439656 L -6.884429295291395 18.89027525439656 L -7.99996545716377 18.519404545381743 L -7.99996545716377 18.519404545381743 L -8.697404093533683 19.465737129491888 M -9.664612019409034 17.771370656627465 L -10.312906064469809 18.75202392990444 L -10.312906064469809 18.75202392990444 L -9.580583255969428 19.671626732966836 L -9.580583255969428 19.671626732966836 L -8.479688824518638 19.2593192481321 L -8.479688824518638 19.2593192481321 L -8.531621456356937 18.084896405625855 L -8.531621456356937 18.084896405625855 L -9.664612019409033 17.771370656627465 M -11.624179264009397 18.608379202456373 L -10.31968836789319 19.74781042106939 L -10.31968836789319 19.74781042106939 L -9.985157434767364 18.048372556720718 L -9.985157434767364 18.048372556720718 L -11.624179264009397 18.608379202456373 M -13.12467951258388 18.13557685789501 L -12.4701191624928 19.73918240418395 L -12.4701191624928 19.73918240418395 L -11.408636196802497 18.37051373955057 L -11.408636196802497 18.37051373955057 L -13.12467951258388 18.13557685789501 M -14.307642315186282 19.71068404519016 L -13.266860801594127 18.753200969117888 L -13.266860801594127 18.753200969117888 L -14.2243438776664 17.71241945552573 L -14.2243438776664 17.71241945552573 L -15.265125391258556 18.669902531598 L -15.265125391258556 18.669902531598 L -14.307642315186282 19.71068404519016 M -15.844382539914005 19.826418152180963 L -14.749837438687225 19.397539343389294 L -14.749837438687225 19.397539343389294 L -14.81949238710052 18.224034252044714 L -14.81949238710052 18.224034252044714 L -15.957086613931342 17.927647028414384 L -15.957086613931342 17.927647028414384 L -16.59050356310515 18.9179747417242 L -16.59050356310515 18.9179747417242 L -15.844382539914006 19.82641815218096 M -18.189943954692048 19.234386250922473 L -17.39950870175383 19.84693184997 L -17.39950870175383 19.84693184997 L -16.473811025533205 19.46866764040249 L -16.473811025533205 19.46866764040249 L -16.338548602250796 18.47785783178745 L -16.338548602250796 18.47785783178745 L -17.128983855189013 17.86531223273992 L -17.128983855189013 17.86531223273992 L -18.05468153140964 18.243576442307432 L -18.05468153140964 18.243576442307432 L -18.189943954692048 19.234386250922473 M -17.94104834204004 19.34771237139286 L -18.43565857000253 18.022812102544336 L -18.43565857000253 18.022812102544336 L -19.760558838851054 18.517422330506825 L -19.760558838851054 18.517422330506825 L -19.265948610888564 19.84232259935535 L -19.265948610888564 19.84232259935535 L -17.94104834204004 19.34771237139286 M -22.088114165902653 18.29785037041703 L -21.122790267432364 19.73595668465187 L -21.122790267432364 19.73595668465187 L -20.360015615197327 18.18090850857895 L -20.360015615197327 18.18090850857895 L -22.088114165902653 18.29785037041703 M -21.712374398363767 18.708596768426833 L -22.85331760594753 18.425374932548 L -22.85331760594753 18.425374932548 L -23.475248419277218 19.4229560443786 L -23.475248419277218 19.4229560443786 L -22.718679592982067 20.322716913903655 L -22.718679592982067 20.322716913903655 L -21.62916353017336 19.8812186011867 L -21.62916353017336 19.8812186011867 L -21.712374398363767 18.708596768426833 M -23.99043635146956 20.17682095769236 L -23.158945744823868 19.62128214621293 L -23.158945744823868 19.62128214621293 L -23.224311165030418 18.62342075210991 L -23.224311165030418 18.62342075210991 L -24.121167191882666 18.181098169486322 L -24.121167191882666 18.181098169486322 L -24.952657798528357 18.736636980965752 L -24.952657798528357 18.736636980965752 L -24.887292378321806 19.73449837506877 L -24.887292378321806 19.73449837506877 L -23.990436351469558 20.17682095769236 M -27.306722885145778 19.264144396545838 L -25.58357673895314 19.439550664568028 L -25.58357673895314 19.439550664568028 L -26.293243527959223 17.859559193520855 L -26.293243527959223 17.859559193520855 L -27.306722885145778 19.264144396545838 M -27.603694411322053 20.013975957235743 L -26.553856073696043 19.4850095347657 L -26.553856073696043 19.4850095347657 L -26.732515149014727 18.32309432871305 L -26.732515149014727 18.32309432871305 L -27.892770867586318 18.133957661797215 L -27.892770867586318 18.133957661797215 L -28.431189261986304 19.17897997917701 L -28.431189261986304 19.17897997917701 L -27.603694411322053 20.013975957235743 M -28.91858917634409 18.870957941218517 L -29.77251032934122 18.350555534936557 L -29.77251032934122 18.350555534936557 L -30.65015260987051 18.829871743119988 L -30.65015260987051 18.829871743119988 L -30.673873737402676 19.829590357585378 L -30.673873737402676 19.829590357585378 L -29.819952584405545 20.349992763867338 L -29.819952584405545 20.349992763867338 L -28.942310303876255 19.870676555683907 L -28.942310303876255 19.870676555683907 L -28.918589176344092 18.870957941218517" /></g></svg>